<svg xmlns="http://www.w3.org/2000/svg" xmlns:xlink="http://www.w3.org/1999/xlink" viewBox="0 0 38.39 38.25"><defs><style>.cls-1{fill:none;}.cls-2{clip-path:url(#clip-path);}.cls-3{fill:#fff;}</style><clipPath id="clip-path"><rect class="cls-1" width="38.39" height="38.25"/></clipPath></defs><title>Element 3</title><g id="Ebene_2" data-name="Ebene 2"><g id="Ebene_1-2" data-name="Ebene 1"><g class="cls-2"><path class="cls-3" d="M19.14,38.25c-.71,0-1.43-.05-2.15-.1A19.63,19.63,0,0,1,3.6,30.28,18.59,18.59,0,0,1,.22,16.37,19.53,19.53,0,0,1,8,3.65,21.21,21.21,0,0,1,23.74.33a16.72,16.72,0,0,1,11,6.9c3.12,4.65,4.29,10,3.22,14.52a12.15,12.15,0,0,1-5.21,7.31,7,7,0,0,1-7.51,0c-1.28-.87-1.79-2.45-1.48-4.7L26.81,8l1.84.36-3,16.25c-.15,1.43.05,2.4.72,2.86,2.2,1.38,3.94.71,5.52-.1a11,11,0,0,0,4.29-6.08c.92-4-.15-8.79-3-13a14.59,14.59,0,0,0-9.76-6.08,19.42,19.42,0,0,0-14.31,3,18,18,0,0,0-7,11.55,16.52,16.52,0,0,0,3,12.47,17.64,17.64,0,0,0,12.06,7.1,16.4,16.4,0,0,0,12.78-4l1.23,1.43a18.51,18.51,0,0,1-12.11,4.55Z"/><path class="cls-3" d="M16.53,30.43a7.16,7.16,0,0,1-1.79-.26c-4.45-1.38-6.49-7.61-4.6-14s7.21-10.33,11.65-9,6.49,7.62,4.6,14c-1.74,5.47-5.88,9.25-9.87,9.25M20,9c-3.12,0-6.44,3.22-7.82,7.87C10.55,22.1,12,27.26,15.35,28.28s7.46-2.4,9.1-7.72.15-10.43-3.27-11.45A4.74,4.74,0,0,0,20,9Z"/></g></g></g></svg>