<svg xmlns="http://www.w3.org/2000/svg" xmlns:xlink="http://www.w3.org/1999/xlink" viewBox="0 0 39 39"><defs><style>.cls-1{fill:none;}.cls-2{clip-path:url(#clip-path);}.cls-3{fill:#fff;}</style><clipPath id="clip-path" transform="translate(0 0)"><rect class="cls-1" width="39" height="39"/></clipPath></defs><title>Element 5</title><g id="Ebene_2" data-name="Ebene 2"><g id="Ebene_1-2" data-name="Ebene 1"><g class="cls-2"><path class="cls-3" d="M25.55,13.19a5.26,5.26,0,0,0,7.43,0L37.8,8.37A4.11,4.11,0,0,0,39,5.46a4.06,4.06,0,0,0-.51-2A3.86,3.86,0,0,0,37,2a16,16,0,0,0-19,2.71L4.69,17.95A16,16,0,0,0,2,37a3.86,3.86,0,0,0,1.5,1.51,4.06,4.06,0,0,0,2,.51,4.11,4.11,0,0,0,2.91-1.2L13.19,33a5.25,5.25,0,0,0,0-7.43l-1.72-1.72L23.83,11.46Zm-2.17-3.06L10.13,23.38a.63.63,0,0,0,0,.89l2.16,2.16a4,4,0,0,1,0,5.65L7.48,36.91a2.85,2.85,0,0,1-2,.83,2.8,2.8,0,0,1-1.36-.35,2.57,2.57,0,0,1-1-1,14.75,14.75,0,0,1,2.5-17.54L18.84,5.58a14.75,14.75,0,0,1,17.54-2.5,2.59,2.59,0,0,1,1,1,2.8,2.8,0,0,1,.35,1.36,2.86,2.86,0,0,1-.83,2L32.09,12.3a4,4,0,0,1-5.65,0l-2.17-2.16A.63.63,0,0,0,23.38,10.13Z" transform="translate(0 0)"/></g></g></g></svg>