<?xml version="1.0" encoding="utf-8"?>
<!-- Generator: Adobe Illustrator 21.0.0, SVG Export Plug-In . SVG Version: 6.00 Build 0)  -->
<svg version="1.1" id="Ebene_1" xmlns="http://www.w3.org/2000/svg" xmlns:xlink="http://www.w3.org/1999/xlink" x="0px" y="0px"
	 viewBox="0 0 100 100" style="enable-background:new 0 0 100 100;" xml:space="preserve">
<style type="text/css">
	.st0{clip-path:url(#SVGID_2_);fill:#C94A39;}
	.st1{clip-path:url(#SVGID_2_);fill:#FFFFFF;}
</style>
<g>
	<defs>
		<rect id="SVGID_1_" x="1" y="1" width="98" height="98"/>
	</defs>
	<clipPath id="SVGID_2_">
		<use xlink:href="#SVGID_1_"  style="overflow:visible;"/>
	</clipPath>
	<path class="st0" d="M50,99c27.1,0,49-21.9,49-49C99,22.9,77.1,1,50,1S1,22.9,1,50C1,77.1,22.9,99,50,99"/>
	<path class="st1" d="M74.8,41l-4.4,12.1l-4.1,14.7c-2.5,8.4-6.7,11.4-14.4,11.4c-6.6,0-10.7-2.7-14.6-8.9L25.4,50.2
		c-0.9-1.7-0.4-3.5,1.1-4.2c1.5-0.8,3.2-0.6,4.5,1.2c0.4,0.6,2.3,3.1,4.5,6l0,0c0.9,1.3,2.1,2.9,3.7,5l4.6,6.6l3.8,6
		c0.4,0.6,1.1,1,1.7,0.6c0.6-0.3,0.7-0.9,0.4-1.7l-2.5-5.3c-0.1-0.3,0.2-0.6,0.5-0.3l6,7.8c0.5,0.6,1.6,0.9,2.2,0.4
		c0.6-0.5,0.5-1.5,0-2.1l-5.1-7.2c-0.2-0.2,0.2-0.5,0.4-0.3L58,70c0.5,0.6,1.5,0.8,2.2,0.3c0.6-0.5,0.5-1.5,0-2.1l-7.5-8.2
		c-0.2-0.2,0.1-0.5,0.3-0.3l6.4,4.9c0.8,0.5,1.8,0.6,2.3,0c0.6-0.7,0.1-1.7-0.6-2.2l-9.2-7.8c-1.5-1.2-0.9-2.4,0.9-2.4
		c2.3,0.1,4.9,0.1,5.4,0.1c1,0,1.7-0.6,1.8-1.4s-0.4-1.5-1.3-1.7l-11.2-1.4c-1.4-0.1-3-0.3-4.6-0.4l0.6-18.1c0-1.8,1.1-3.3,3-3.3
		c1.7,0,3,1.5,3.1,3.4l0.3,15.3c0,0.6,0.8,0.6,1,0.1l3.5-21.4c0.3-1.7,1.9-2.7,3.6-2.4c1.7,0.3,2.8,2,2.5,3.6l-2.7,19.4
		c-0.1,0.6,0.8,0.8,1,0.2l4.6-15.9c0.4-1.6,1.9-2.6,3.6-2.3c1.7,0.3,2.7,2.2,2.4,3.7l-4.7,18.2c-0.1,0.7,0.8,1,1.1,0.4l4.6-9
		c0.8-1.6,2-2,3.3-1.5C74.8,38.1,75.4,39.6,74.8,41z"/>
</g>
</svg>
