<svg xmlns="http://www.w3.org/2000/svg" xmlns:xlink="http://www.w3.org/1999/xlink" viewBox="0 0 38.79 28.97"><defs><style>.cls-1{fill:none;}.cls-2{fill:#fff;}.cls-3{clip-path:url(#clip-path);}</style><clipPath id="clip-path"><rect class="cls-1" width="38.79" height="28.97"/></clipPath></defs><title>Element 4</title><g id="Ebene_2" data-name="Ebene 2"><g id="Ebene_1-2" data-name="Ebene 1"><path class="cls-2" d="M1,1.6,14.39,14.24,1,23.09ZM1.7,1H33.45l-15.85,15ZM0,0V25.43H22.56v-1H1v-.24l14.1-9.29,2.48,2.33L20,14.92l2.87,1.9.54-.83-2.67-1.75L34.18,1.6V12.83h1V0Z"/><g class="cls-3"><path class="cls-2" d="M31,13.42a7.78,7.78,0,1,0,7.78,7.78A7.8,7.8,0,0,0,31,13.42M31,28a6.81,6.81,0,1,1,6.81-6.81A6.83,6.83,0,0,1,31,28"/><path class="cls-2" d="M31,20.61A2.62,2.62,0,1,0,28.39,18,2.65,2.65,0,0,0,31,20.61m0-4.28A1.65,1.65,0,1,1,29.36,18,1.67,1.67,0,0,1,31,16.33"/><path class="cls-2" d="M32.18,20.9H29.85A2.82,2.82,0,0,0,27,23.72v2.87h1V23.72a1.85,1.85,0,0,1,1.85-1.85h2.33A1.85,1.85,0,0,1,34,23.72v2.87h1V23.72a2.82,2.82,0,0,0-2.82-2.82"/></g></g></g></svg>