<?xml version="1.0" encoding="utf-8"?>
<!-- Generator: Adobe Illustrator 21.0.0, SVG Export Plug-In . SVG Version: 6.00 Build 0)  -->
<svg version="1.1" id="Ebene_1" xmlns="http://www.w3.org/2000/svg" xmlns:xlink="http://www.w3.org/1999/xlink" x="0px" y="0px"
	 viewBox="0 0 100 100" style="enable-background:new 0 0 100 100;" xml:space="preserve">
<style type="text/css">
	.st0{clip-path:url(#SVGID_2_);fill:#C94A39;}
	.st1{clip-path:url(#SVGID_2_);fill:none;stroke:#C94A39;}
	.st2{clip-path:url(#SVGID_2_);fill:#FFFFFF;}
</style>
<g>
	<defs>
		<rect id="SVGID_1_" x="0.5" y="0.5" width="99" height="99"/>
	</defs>
	<clipPath id="SVGID_2_">
		<use xlink:href="#SVGID_1_"  style="overflow:visible;"/>
	</clipPath>
	<path class="st0" d="M50,99c27.1,0,49-21.9,49-49C99,22.9,77.1,1,50,1S1,22.9,1,50C1,77.1,22.9,99,50,99"/>
	<circle class="st1" cx="50" cy="50" r="49"/>
	<path class="st2" d="M75.8,36.2c-3-5.3-8.6-8.4-14.9-8.4c-2.8,0-6,1.1-8.7,3.2c-0.7,0.6-1.4,1.1-2.1,1.9c-0.6-0.7-1.4-1.3-2.2-1.9
		c-2.7-2.1-5.8-3.2-8.7-3.2c-6.3,0-11.8,3.2-14.9,8.4c-1.5,2.7-2.4,5.8-2.3,8.9c0,1.1,0.9,2,2.1,2h0.1c1.1,0,2.1-1,2-2.2
		c-0.1-2.4,0.6-4.7,1.7-6.7c2.3-3.9,6.5-6.3,11.3-6.3c1.9,0,4.2,0.9,6.2,2.4c1.1,0.9,2.2,1.9,2.9,3c0.4,0.6,1,0.9,1.7,0.9
		s1.4-0.4,1.7-0.9c0.9-1.4,2-2.3,2.9-3c1.9-1.4,4.2-2.4,6.2-2.4c4.8,0,9,2.4,11.3,6.3c1.1,2.1,1.8,4.4,1.7,6.7
		c-0.1,2.6-0.8,5.2-2.2,7.6C67,60.6,52.5,71.1,50.2,72.2h-0.1H50H50h-0.1c-1.8-0.9-10.5-7.2-16.6-13.5c-0.8-0.9-2.2-0.9-2.9-0.1
		c-0.9,0.8-0.9,2.2-0.1,2.9c6.4,6.7,15.3,13.1,17.6,14.3c0.6,0.4,1.3,0.5,2.1,0.5h0.1c0.7,0,1.4-0.2,2-0.5
		c3.1-1.7,17.9-12.4,23.1-21.3c1.8-3.1,2.7-6.2,2.8-9.6C78.1,42,77.3,38.9,75.8,36.2L75.8,36.2z"/>
	<path class="st2" d="M48.1,64.7c0.3,0.8,1.1,1.3,1.9,1.3h0.1c0.9-0.1,1.6-0.6,1.9-1.4l5.2-16.7l2.4,5.7c0.4,0.8,1.1,1.3,1.9,1.3
		h4.2c1.1,0,2.1-0.9,2.1-2.1c0-1.1-0.9-2.1-2.1-2.1h-2.8l-4-9.6c-0.4-0.8-1.1-1.3-2-1.3c-0.9,0.1-1.7,0.6-1.9,1.4l-5.2,16.6L47,51.3
		C46.7,50.5,46,50,45.1,50H27.4c-1.1,0-2.1,0.9-2.1,2.1c0,1.1,0.9,2.1,2.1,2.1h16.3L48.1,64.7z"/>
</g>
</svg>
